<?xml version="1.0" encoding="UTF-8" standalone="no"?>
<svg
   width="306.10202"
   height="300.55844"
   viewBox="0 0 306.10202 300.55844"
   version="1.1"
   xml:space="preserve"
   style="clip-rule:evenodd;fill-rule:evenodd;stroke-linejoin:round;stroke-miterlimit:2"
   id="svg4"
   sodipodi:docname="monochrome(1).svg"
   inkscape:export-batch-name="monochrome(1)"
   xmlns:inkscape="http://www.inkscape.org/namespaces/inkscape"
   xmlns:sodipodi="http://sodipodi.sourceforge.net/DTD/sodipodi-0.dtd"
   xmlns="http://www.w3.org/2000/svg"
   xmlns:svg="http://www.w3.org/2000/svg"><defs
   id="defs4" /><sodipodi:namedview
   id="namedview4"
   pagecolor="#ffffff"
   bordercolor="#000000"
   borderopacity="0.25"
   inkscape:showpageshadow="2"
   inkscape:pageopacity="0.0"
   inkscape:pagecheckerboard="0"
   inkscape:deskcolor="#d1d1d1"><inkscape:page
     x="0"
     y="0"
     width="306.10202"
     height="300.55844"
     id="page1"
     margin="0"
     bleed="0" /></sodipodi:namedview>
    <g
   transform="translate(-757.5043,-1483.7159)"
   id="g4">
        <g
   transform="matrix(1.432974,0,0,1.80298,-288.92902,-864.20063)"
   id="g3">
            <g
   transform="matrix(0.629919,0,0,0.500647,539.40753,1110.973)"
   id="g1">
                <path
   d="M 356.969,675.637 C 323.753,644.675 302.968,600.546 302.968,551.6 302.968,458.019 378.944,382.044 472.524,382.044 566.105,382.044 642.08,458.019 642.08,551.6 642.08,629.48 589.46,695.166 517.864,715.015 501.974,691.667 487.572,670.399 498.34,635.393 485.202,642.099 476.944,655.288 474.445,669.626 469.556,661.943 464.129,654.533 457.841,647.931 441.837,631.125 420.016,619.373 409.919,597.549 405.306,587.241 402.145,572.504 405.799,561.838 408.436,582.54 418.507,601.587 436.545,612.617 450.296,621.023 465.703,622.408 481.126,625.661 497.203,629.048 522.738,636.688 538.403,633.928 551.425,631.638 578.749,617.255 578.02,601.656 577.765,596.289 571.213,587.245 568.79,582.066 565.566,575.171 567.48,573.682 567.848,566.765 568.885,547.188 563.715,537.516 554.206,521.395 542.674,501.84 530.016,490.024 508.095,482.087 488.062,474.831 457.231,478.938 456.996,479.271 461.046,483.711 464.773,488.906 465.295,495.055 457.084,487.46 449.14,479.387 439.945,472.948 419.607,458.71 406.868,460.052 398.782,484.817 394.568,497.72 391.382,515.255 395.288,528.453 397.657,536.447 402.575,542.952 408.175,548.951 397.217,547.458 390.574,537.94 388.158,527.623 360.997,586.373 354.95,614.781 356.969,675.637 Z M 558.455,619.379 558.452,619.376 C 554.235,619.505 550.344,617.264 547.164,614.697 545.37,613.176 542.74,611.209 542.372,608.931 541.643,604.396 545.254,601.153 547.406,599.808 549.251,598.658 551.495,598.017 553.613,597.527 558.442,596.411 563.455,595.377 568.319,596.323 569.774,596.606 571.22,597.077 572.417,597.951 573.614,598.821 574.544,600.138 574.705,601.612 574.824,602.705 574.525,603.796 574.164,604.833 573.322,607.217 572.16,609.476 570.71,611.548 569.274,613.613 567.556,615.508 565.485,616.934 563.414,618.361 560.969,619.304 558.455,619.379 Z M 486.399,552.769 C 503.076,550.51 505.109,576.334 489.02,577.418 472.931,578.502 471.118,554.84 486.399,552.769 Z M 430.213,501.5 C 431.753,505.171 434.926,507.616 437.667,510.309 431.445,512.197 425.166,510.394 419.704,507.264 420.028,513.033 424.299,518.121 427.498,522.174 422.225,523.384 417.564,521.577 413.944,517.769 413.891,523.13 415.717,527.806 418.347,532.34 408.062,537.456 403.622,526.696 403.097,518.275 402.522,509.02 406.267,485.669 412.907,478.941 420.336,471.412 431.875,480.182 438.166,485.238 443.719,489.698 449.061,495.087 454.092,500.111 447.487,504.476 437.648,504.294 430.213,501.5 Z M 559.47,568.921 C 555.834,562.599 554.722,560.76 552.607,556.182 551.168,553.064 550.439,549.366 555.655,549.256 565.117,549.055 568.395,564.041 561.026,569.27 560.844,569.397 560.628,569.465 560.407,569.465 560.02,569.465 559.662,569.257 559.47,568.921 Z M 553.254,508.59 C 555.938,471.688 555.624,447.806 521.4,481.304 534.318,487.312 545.181,496.897 553.254,508.59 Z"
   id="path1" />
            </g>
            <g
   transform="matrix(1.730725,0,0,1.375547,-3179.0526,-90.872445)"
   id="g2">
                
            </g>
        </g>
    </g>
</svg>
